<?xml version="1.0" standalone="no"?><!DOCTYPE svg PUBLIC "-//W3C//DTD SVG 1.1//EN" "http://www.w3.org/Graphics/SVG/1.1/DTD/svg11.dtd"><svg t="1693130331830" class="icon" viewBox="0 0 1024 1024" version="1.1" xmlns="http://www.w3.org/2000/svg" p-id="6042" id="mx_n_1693130331831" width="200" height="200" xmlns:xlink="http://www.w3.org/1999/xlink"><path d="M232.106667 346.004211L215.578947 314.745263l287.438597-164.558596a19.761404 19.761404 0 0 1 17.964912 0l287.438597 164.558596-17.964913 31.258948-279.534035-159.528422z" p-id="6043" fill="#D7CA99"></path><path d="M519.904561 838.242807l-17.964912-31.258947L780.036491 646.736842v-287.438596l-260.13193 148.749473-17.964912-30.899649 287.438597-164.199298a17.964912 17.964912 0 0 1 26.947368 15.449824v328.398597a17.246316 17.246316 0 0 1-8.982456 15.449825z" p-id="6044" fill="#D7CA99"></path><path d="M510.922105 840.398596a19.402105 19.402105 0 0 1-8.982456-2.155789L215.578947 674.043509a17.605614 17.605614 0 0 1-9.341754-15.449825V330.195088A18.683509 18.683509 0 0 1 215.578947 314.745263a17.964912 17.964912 0 0 1 17.964913 0l287.438596 164.199298a17.605614 17.605614 0 0 1 8.982456 15.449825v328.039298a17.964912 17.964912 0 0 1-8.982456 15.449825 16.887018 16.887018 0 0 1-10.060351 2.515087zM241.089123 646.736842l251.508772 143.719298v-287.438596l-251.508772-143.719298z" p-id="6045" fill="#D7CA99"></path><path d="M798.001404 330.195088v328.398596l-287.079299 163.84v-123.239298l91.261755-52.098246V549.726316l85.512982-48.505263v-106.711579l110.304562-64.314386z" opacity=".3" p-id="6046" fill="#D7CA99"></path><path d="M510.922105 840.398596a15.449825 15.449825 0 0 1-8.982456-2.515087 17.246316 17.246316 0 0 1-8.982456-15.449825v-123.239298A17.246316 17.246316 0 0 1 503.017544 682.666667l82.279298-47.068071V549.726316a16.887018 16.887018 0 0 1 8.982456-15.449825l76.530527-43.475087V395.22807a18.683509 18.683509 0 0 1 8.982456-15.449824L790.45614 314.745263a17.964912 17.964912 0 0 1 17.964913 0 17.246316 17.246316 0 0 1 8.982456 15.449825v328.398596a17.246316 17.246316 0 0 1-8.982456 15.449825l-287.438597 164.199298a20.48 20.48 0 0 1-10.060351 2.155789z m17.964913-130.784561V790.45614l251.508771-143.719298v-287.438596l-74.374736 43.475087V503.017544a17.964912 17.964912 0 0 1-8.982457 15.809123l-76.530526 43.115789V646.736842a17.964912 17.964912 0 0 1-8.982456 15.449825z" p-id="6047" fill="#D7CA99"></path></svg>